<svg width="1440" height="344" viewBox="0 0 1440 344" fill="none" xmlns="http://www.w3.org/2000/svg">
<path fill-rule="evenodd" clip-rule="evenodd" d="M0 19.4086L27 11.3953C53 3.382 107 -13.217 160 19.4086C213 52.6066 229 88.3779 308 95.5115C387 102.645 421.5 95.5115 494.5 73.7143C567.5 51.9171 588.537 44.3858 640 34.083C691.463 23.7801 755 9.03555 822.502 19.4086C890.004 29.7817 916 40.9251 969 61.5308C1022 82.1364 1079 95.5115 1129.5 95.5115C1180 95.5115 1216 91.0907 1270.5 67.5408C1325 43.9908 1334.5 36.1122 1367.5 27.7604C1400.5 19.4086 1440 27.7604 1440 27.7604V344H1413C1387 344 1333 344 1280 344C1227 344 1173 344 1120 344C1067 344 1013 344 960 344C907 344 853 344 800 344C747 344 693 344 640 344C587 344 533 344 480 344C427 344 373 344 320 344C267 344 213 344 160 344C107 344 53 344 27 344H0V19.4086Z" fill="url(#paint0_linear_611_5)"/>
<defs>
<linearGradient id="paint0_linear_611_5" x1="720" y1="285" x2="720" y2="10.5" gradientUnits="userSpaceOnUse">
<stop stop-color="#00CCCC"/>
<stop offset="1" stop-color="#00CCCC" stop-opacity="0.25"/>
</linearGradient>
</defs>
</svg>
