<svg width="1440" height="470" viewBox="0 0 1440 470" fill="none" xmlns="http://www.w3.org/2000/svg">
<path fill-rule="evenodd" clip-rule="evenodd" d="M0 135.521L30 114.617C60 93.7117 120 51.9018 180 41.8098C240 31.7178 300 51.9018 360 67.7607C420 83.6196 480 93.7117 540 114.617C600 135.521 660 166.518 720 135.521C780 103.804 840 10.8129 900 5.76687C960 0 1020 83.6196 1080 83.6196C1140 83.6196 1200 0 1260 0C1320 0 1380 83.6196 1410 124.709L1440 166.518V470H1410C1380 470 1320 470 1260 470C1200 470 1140 470 1080 470C1020 470 960 470 900 470C840 470 780 470 720 470C660 470 600 470 540 470C480 470 420 470 360 470C300 470 240 470 180 470C120 470 60 470 30 470H0V135.521Z" fill="url(#paint0_linear_611_7)"/>
<defs>
<linearGradient id="paint0_linear_611_7" x1="720" y1="0" x2="720" y2="470" gradientUnits="userSpaceOnUse">
<stop stop-color="#0C3A46"/>
<stop offset="1" stop-color="#004958"/>
</linearGradient>
</defs>
</svg>
